# xmcd
#
# Track frame offsets:
#	150
#	21195
#	40624
#	59379
#	89971
#	133745
#	156097
#	179134
#	203096
#
# Disc length: 2942 seconds
#
# Revision: 0
# Processed by: cddbd v1.5.1PL0 Copyright (c) Steve Scherf et al.
# Submitted via: dBpowerAMP V4.0
#
DISCID=800b7c09
DTITLE=Chris Duarte Group - Texas Sugar - Strat Magik
DYEAR=1995
DGENRE=Blues
TTITLE0=My way down
TTITLE1=Letter to my girlfriend
TTITLE2=C-butt rock
TTITLE3=Just kissed my baby
TTITLE4=Shiloh
TTITLE5=Scrawl
TTITLE6=What can I do?
TTITLE7=Big-legged woman
TTITLE8=Borrowed love
EXTD=
EXTT0=
EXTT1=
EXTT2=
EXTT3=
EXTT4=
EXTT5=
EXTT6=
EXTT7=
EXTT8=
PLAYORDER=
